<svg width="388" height="214" viewBox="0 0 388 214" fill="none" xmlns="http://www.w3.org/2000/svg">
<path d="M25.7459 7.52102C27.8146 8.90648 28.9944 10.8527 29.2853 13.3597H35.1036C35.0228 10.8032 34.247 8.51888 32.7763 6.50667C31.3217 4.49447 29.35 2.9111 26.861 1.75655C24.3721 0.585519 21.5276 0 18.3276 0C15.1598 0 12.2911 0.593766 9.72136 1.7813C7.16779 2.95233 5.13139 4.60168 3.61218 6.72934C2.10912 8.8405 1.3576 11.3145 1.3576 14.1514C1.3576 17.5655 2.48893 20.3282 4.75159 22.4394C7.01425 24.5505 10.085 26.1751 13.9639 27.3132L20.073 29.0945C21.8185 29.5893 23.4428 30.1666 24.9458 30.8263C26.4489 31.486 27.661 32.3437 28.5823 33.3993C29.5035 34.4549 29.9641 35.8238 29.9641 37.5061C29.9641 39.3534 29.4308 40.9698 28.3641 42.3552C27.2974 43.7242 25.8509 44.7963 24.0246 45.5715C22.1983 46.3302 20.1377 46.7095 17.8427 46.7095C15.871 46.7095 14.0285 46.4126 12.3153 45.8189C10.6183 45.2086 9.21226 44.285 8.0971 43.048C6.99809 41.7944 6.36778 40.2111 6.20616 38.2978H0C0.193942 41.0687 1.02628 43.5015 2.49701 45.5962C3.9839 47.6909 6.0203 49.3237 8.6062 50.4948C11.2083 51.6658 14.2871 52.2513 17.8427 52.2513C21.6569 52.2513 24.8974 51.5998 27.5641 50.2968C30.2469 48.9939 32.2833 47.2373 33.6733 45.0272C35.0793 42.817 35.7824 40.343 35.7824 37.6051C35.7824 35.2301 35.3056 33.2261 34.3521 31.5932C33.3985 29.9604 32.1864 28.6244 30.7156 27.5853C29.2611 26.5297 27.7338 25.6968 26.1337 25.0866C24.5499 24.4763 23.1115 23.998 21.8185 23.6516L16.776 22.2662C15.8548 22.0188 14.8447 21.6972 13.7457 21.3013C12.6467 20.889 11.5961 20.3694 10.5941 19.7427C9.59207 19.0994 8.76781 18.2995 8.12134 17.3429C7.49103 16.3698 7.17587 15.207 7.17587 13.8545C7.17587 12.2382 7.6284 10.795 8.53347 9.52498C9.45469 8.25498 10.7315 7.25713 12.3638 6.53141C14.0123 5.8057 15.9356 5.44284 18.1336 5.44284C21.1397 5.44284 23.6771 6.13557 25.7459 7.52102Z" fill="#FF5906"/>
<path fill-rule="evenodd" clip-rule="evenodd" d="M49.1709 49.7278C51.773 51.3442 54.868 52.1523 58.4559 52.1523C60.9772 52.1523 63.2479 51.7565 65.2682 50.9648C67.2884 50.1566 68.9854 49.0351 70.3592 47.6002C71.7329 46.1487 72.7107 44.4664 73.2925 42.5531L67.7652 40.9698C67.2803 42.2893 66.5934 43.3943 65.7045 44.285C64.8156 45.1591 63.757 45.8189 62.5287 46.2642C61.3166 46.693 59.959 46.9074 58.4559 46.9074C56.1448 46.9074 54.1165 46.3961 52.371 45.3735C50.6255 44.3344 49.2598 42.8253 48.274 40.8461C47.3947 39.0365 46.9141 36.8676 46.8321 34.3394L73.8744 34.3394V31.8654C73.8744 28.3193 73.4137 25.334 72.4925 22.9094C71.5713 20.4849 70.3349 18.5387 68.7834 17.0707C67.2318 15.5863 65.5106 14.5143 63.6197 13.8545C61.7287 13.1948 59.8135 12.8649 57.8741 12.8649C54.5124 12.8649 51.571 13.7061 49.0497 15.3884C46.5446 17.0542 44.5891 19.3798 43.183 22.3651C41.7931 25.334 41.0981 28.7646 41.0981 32.6571C41.0981 36.5495 41.7931 39.9637 43.183 42.8995C44.5891 45.8189 46.585 48.095 49.1709 49.7278ZM68.0561 29.2924C68.0561 27.1482 67.6359 25.235 66.7955 23.5527C65.9712 21.8703 64.7914 20.5426 63.256 19.5695C61.7368 18.5964 59.9428 18.1098 57.8741 18.1098C55.5953 18.1098 53.6235 18.6871 51.9589 19.8416C50.3104 20.9797 49.0417 22.4641 48.1527 24.2949C47.391 25.8638 46.9556 27.5297 46.8467 29.2924L68.0561 29.2924Z" fill="#FF5906"/>
<path d="M80.5295 51.3607V13.3597H86.0569V19.2974H86.5417C87.3175 17.2687 88.57 15.6935 90.2993 14.572C92.0287 13.4339 94.1055 12.8649 96.5297 12.8649C98.9864 12.8649 101.031 13.4339 102.663 14.572C104.312 15.6935 105.597 17.2687 106.518 19.2974H106.906C107.859 17.3346 109.29 15.776 111.197 14.6215C113.104 13.4504 115.391 12.8649 118.057 12.8649C121.387 12.8649 124.11 13.9287 126.227 16.0564C128.344 18.1676 129.403 21.458 129.403 25.9277V51.3607H123.682V25.9277C123.682 23.1238 122.93 21.1199 121.427 19.9159C119.924 18.7118 118.154 18.1098 116.118 18.1098C113.5 18.1098 111.471 18.918 110.033 20.5344C108.595 22.1342 107.875 24.1629 107.875 26.6205V51.3607H102.057V25.334C102.057 23.1733 101.37 21.4333 99.9965 20.1138C98.6227 18.7778 96.853 18.1098 94.6873 18.1098C93.2004 18.1098 91.8105 18.5139 90.5175 19.3221C89.2407 20.1303 88.2064 21.2518 87.4144 22.6868C86.6387 24.1052 86.2508 25.7463 86.2508 27.6101V51.3607H80.5295Z" fill="#FF5906"/>
<path d="M134.034 0.692727L147.61 51.3607H153.816L164.774 10.9846H165.162L176.119 51.3607H182.326L195.901 0.692727H189.792L179.416 41.9594H178.932L168.362 0.692727H161.574L151.004 41.9594H150.519L140.143 0.692727H134.034Z" fill="#3DBF00"/>
<path fill-rule="evenodd" clip-rule="evenodd" d="M212.714 52.1523C209.126 52.1523 206.031 51.3442 203.429 49.7278C200.843 48.095 198.847 45.8189 197.441 42.8995C196.051 39.9637 195.356 36.5495 195.356 32.6571C195.356 28.7646 196.051 25.334 197.441 22.3651C198.847 19.3798 200.803 17.0542 203.308 15.3884C205.829 13.7061 208.771 12.8649 212.133 12.8649C214.072 12.8649 215.987 13.1948 217.878 13.8545C219.769 14.5143 221.49 15.5863 223.042 17.0707C224.593 18.5387 225.83 20.4849 226.751 22.9094C227.672 25.334 228.133 28.3193 228.133 31.8654V34.3394L201.09 34.3394C201.172 36.8676 201.653 39.0365 202.532 40.8461C203.518 42.8253 204.884 44.3344 206.629 45.3735C208.375 46.3961 210.403 46.9074 212.714 46.9074C214.217 46.9074 215.575 46.693 216.787 46.2642C218.015 45.8189 219.074 45.1591 219.963 44.285C220.852 43.3943 221.539 42.2893 222.024 40.9698L227.551 42.5531C226.969 44.4664 225.991 46.1487 224.618 47.6002C223.244 49.0351 221.547 50.1566 219.527 50.9648C217.506 51.7565 215.236 52.1523 212.714 52.1523ZM201.105 29.2924L222.314 29.2924C222.314 27.1482 221.894 25.235 221.054 23.5527C220.23 21.8703 219.05 20.5426 217.514 19.5695C215.995 18.5964 214.201 18.1098 212.133 18.1098C209.854 18.1098 207.882 18.6871 206.217 19.8416C204.569 20.9797 203.3 22.4641 202.411 24.2949C201.649 25.8638 201.214 27.5297 201.105 29.2924Z" fill="#3DBF00"/>
<path fill-rule="evenodd" clip-rule="evenodd" d="M235.564 0.692727V51.3607H241.091V45.522H241.77C242.19 46.2147 242.788 47.0889 243.564 48.1444C244.34 49.1835 245.447 50.1154 246.885 50.9401C248.323 51.7483 250.239 52.1523 252.631 52.1523C255.734 52.1523 258.473 51.3524 260.849 49.7526C263.225 48.1362 265.083 45.8601 266.425 42.9243C267.766 39.9719 268.437 36.4836 268.437 32.4592C268.437 28.4677 267.766 25.0041 266.425 22.0683C265.083 19.1324 263.217 16.8646 260.825 15.2647C258.433 13.6648 255.669 12.8649 252.534 12.8649C250.109 12.8649 248.186 13.2772 246.764 14.1019C245.358 14.9101 244.275 15.8337 243.515 16.8728C242.772 17.8954 242.19 18.7366 241.77 19.3963H241.285V0.692727H235.564ZM242.424 39.9554C241.6 37.7618 241.188 35.2301 241.188 32.3602C241.188 29.5233 241.592 27.041 242.4 24.9134C243.208 22.7692 244.404 21.1034 245.988 19.9159C247.572 18.7118 249.528 18.1098 251.855 18.1098C254.279 18.1098 256.291 18.7448 257.891 20.0148C259.507 21.2683 260.712 22.9754 261.503 25.136C262.312 27.2802 262.716 29.6882 262.716 32.3602C262.716 35.0651 262.303 37.5226 261.479 39.7328C260.671 41.9264 259.459 43.6747 257.843 44.9777C256.243 46.2642 254.247 46.9074 251.855 46.9074C249.56 46.9074 247.62 46.2972 246.037 45.0767C244.453 43.8396 243.249 42.1326 242.424 39.9554Z" fill="#3DBF00"/>
<path d="M279.31 51.7565C278.114 51.7565 277.088 51.3194 276.231 50.4453C275.375 49.5711 274.947 48.5238 274.947 47.3033C274.947 46.0828 275.375 45.0354 276.231 44.1613C277.088 43.2871 278.114 42.85 279.31 42.85C280.506 42.85 281.533 43.2871 282.389 44.1613C283.246 45.0354 283.674 46.0828 283.674 47.3033C283.674 48.1115 283.472 48.8537 283.068 49.5299C282.68 50.2061 282.155 50.7504 281.492 51.1627C280.846 51.5586 280.118 51.7565 279.31 51.7565Z" fill="#0052F0"/>
<path fill-rule="evenodd" clip-rule="evenodd" d="M292.669 0.692727V51.3607H298.681V32.855L309.542 32.855C313.404 32.855 316.572 32.1375 319.045 30.7026C321.518 29.2512 323.344 27.3049 324.524 24.8639C325.72 22.4229 326.318 19.7097 326.318 16.7244C326.318 13.7391 325.72 11.0341 324.524 8.60959C323.328 6.18505 321.485 4.26356 318.996 2.84512C316.523 1.41019 313.34 0.692727 309.445 0.692727H292.669ZM309.348 27.4121C312.014 27.4121 314.156 26.9421 315.772 26.002C317.388 25.0618 318.56 23.7918 319.287 22.192C320.031 20.5756 320.402 18.7531 320.402 16.7244C320.402 14.6957 320.031 12.8814 319.287 11.2815C318.56 9.68167 317.38 8.42816 315.748 7.52102C314.115 6.59739 311.95 6.13557 309.251 6.13557H298.681V27.4121L309.348 27.4121Z" fill="#EE00D6"/>
<path d="M333.179 51.3607V13.3597H338.706V19.0994H339.094C339.773 17.2192 341.001 15.6935 342.779 14.5225C344.557 13.3515 346.561 12.7659 348.791 12.7659C349.211 12.7659 349.737 12.7742 350.367 12.7907C350.997 12.8072 351.474 12.8319 351.797 12.8649V18.8026C351.603 18.7531 351.159 18.6789 350.464 18.5799C349.785 18.4644 349.066 18.4067 348.306 18.4067C346.496 18.4067 344.88 18.7943 343.458 19.5695C342.052 20.3282 340.936 21.3838 340.112 22.7362C339.304 24.0722 338.9 25.5979 338.9 27.3132V51.3607H333.179Z" fill="#EE00D6"/>
<path fill-rule="evenodd" clip-rule="evenodd" d="M361.677 49.7031C364.214 51.3359 367.164 52.1523 370.525 52.1523C373.887 52.1523 376.828 51.3359 379.35 49.7031C381.887 48.0702 383.859 45.7859 385.265 42.85C386.687 39.9142 387.398 36.4836 387.398 32.5581C387.398 28.5997 386.687 25.1443 385.265 22.192C383.859 19.2396 381.887 16.947 379.35 15.3142C376.828 13.6813 373.887 12.8649 370.525 12.8649C367.164 12.8649 364.214 13.6813 361.677 15.3142C359.155 16.947 357.184 19.2396 355.761 22.192C354.355 25.1443 353.652 28.5997 353.652 32.5581C353.652 36.4836 354.355 39.9142 355.761 42.85C357.184 45.7859 359.155 48.0702 361.677 49.7031ZM376.828 44.9035C375.18 46.2394 373.079 46.9074 370.525 46.9074C367.972 46.9074 365.871 46.2394 364.222 44.9035C362.574 43.5675 361.353 41.8109 360.562 39.6338C359.77 37.4567 359.374 35.0981 359.374 32.5581C359.374 30.0181 359.77 27.6513 360.562 25.4577C361.353 23.264 362.574 21.491 364.222 20.1385C365.871 18.7861 367.972 18.1098 370.525 18.1098C373.079 18.1098 375.18 18.7861 376.828 20.1385C378.477 21.491 379.697 23.264 380.489 25.4577C381.281 27.6513 381.677 30.0181 381.677 32.5581C381.677 35.0981 381.281 37.4567 380.489 39.6338C379.697 41.8109 378.477 43.5675 376.828 44.9035Z" fill="#EE00D6"/>
<rect y="86" width="132" height="48" fill="#FF5906"/>
<rect x="132" y="86" width="140" height="48" fill="#3DBF00"/>
<rect x="132" y="166" width="140" height="48" fill="#CFEFBF"/>
<rect x="272" y="86" width="16" height="48" fill="#0052F0"/>
<rect x="288" y="86" width="98" height="48" fill="#EE00D6"/>
<rect x="288" y="166" width="98" height="48" fill="#FBBFF5"/>
<path d="M227.289 198V196.36H231.249V184.9L227.289 187.86V185.86L230.589 183.4H233.049V196.36H236.289V198H227.289Z" fill="black"/>
<path d="M215.875 198.001V187.001H217.675V189.101H217.695C217.788 188.367 218.088 187.801 218.595 187.401C219.102 187.001 219.775 186.801 220.615 186.801C221.762 186.801 222.675 187.167 223.355 187.901C224.035 188.621 224.375 189.601 224.375 190.841V191.601H222.575V191.001C222.575 190.161 222.362 189.514 221.935 189.061C221.508 188.594 220.888 188.361 220.075 188.361C218.475 188.361 217.675 189.241 217.675 191.001V198.001H215.875Z" fill="black"/>
<path d="M207.902 198.16C206.568 198.16 205.515 197.787 204.742 197.04C203.982 196.28 203.602 195.253 203.602 193.96V191.04C203.602 189.733 203.982 188.707 204.742 187.96C205.515 187.213 206.568 186.84 207.902 186.84C209.235 186.84 210.282 187.213 211.042 187.96C211.815 188.707 212.202 189.727 212.202 191.02V193.96C212.202 195.253 211.815 196.28 211.042 197.04C210.282 197.787 209.235 198.16 207.902 198.16ZM207.902 196.56C208.688 196.56 209.302 196.34 209.742 195.9C210.182 195.46 210.402 194.813 210.402 193.96V191.04C210.402 190.187 210.182 189.54 209.742 189.1C209.302 188.66 208.688 188.44 207.902 188.44C207.128 188.44 206.515 188.66 206.062 189.1C205.622 189.54 205.402 190.187 205.402 191.04V193.96C205.402 194.813 205.622 195.46 206.062 195.9C206.515 196.34 207.128 196.56 207.902 196.56Z" fill="black"/>
<path d="M197.711 198C196.738 198 195.958 197.72 195.371 197.16C194.798 196.587 194.511 195.834 194.511 194.9V185.04H190.711V183.4H196.311V194.9C196.311 195.354 196.438 195.714 196.691 195.98C196.944 196.234 197.284 196.36 197.711 196.36H201.111V198H197.711Z" fill="black"/>
<path d="M184.316 198.16C182.982 198.16 181.929 197.787 181.156 197.04C180.396 196.28 180.016 195.253 180.016 193.96V191.04C180.016 189.733 180.396 188.707 181.156 187.96C181.929 187.213 182.982 186.84 184.316 186.84C185.649 186.84 186.696 187.213 187.456 187.96C188.229 188.707 188.616 189.727 188.616 191.02V193.96C188.616 195.253 188.229 196.28 187.456 197.04C186.696 197.787 185.649 198.16 184.316 198.16ZM184.316 196.56C185.102 196.56 185.716 196.34 186.156 195.9C186.596 195.46 186.816 194.813 186.816 193.96V191.04C186.816 190.187 186.596 189.54 186.156 189.1C185.716 188.66 185.102 188.44 184.316 188.44C183.542 188.44 182.929 188.66 182.476 189.1C182.036 189.54 181.816 190.187 181.816 191.04V193.96C181.816 194.813 182.036 195.46 182.476 195.9C182.929 196.34 183.542 196.56 184.316 196.56Z" fill="black"/>
<path d="M172.607 198.201C171.273 198.201 170.207 197.827 169.407 197.081C168.62 196.334 168.227 195.307 168.227 194.001V191.001C168.227 189.694 168.62 188.667 169.407 187.921C170.207 187.174 171.273 186.801 172.607 186.801C173.873 186.801 174.893 187.141 175.667 187.821C176.44 188.501 176.847 189.427 176.887 190.601H175.087C175.047 189.894 174.807 189.354 174.367 188.981C173.94 188.594 173.353 188.401 172.607 188.401C171.82 188.401 171.193 188.627 170.727 189.081C170.26 189.521 170.027 190.154 170.027 190.981V194.001C170.027 194.827 170.26 195.467 170.727 195.921C171.193 196.374 171.82 196.601 172.607 196.601C173.353 196.601 173.94 196.407 174.367 196.021C174.807 195.634 175.047 195.094 175.087 194.401H176.887C176.847 195.574 176.44 196.501 175.667 197.181C174.893 197.861 173.873 198.201 172.607 198.201Z" fill="black"/>
<path d="M362.33 197.999V196.219L366.99 191.139C367.683 190.393 368.183 189.726 368.49 189.139C368.81 188.553 368.97 187.979 368.97 187.419C368.97 186.619 368.736 185.986 368.27 185.519C367.803 185.039 367.17 184.799 366.37 184.799C365.556 184.799 364.91 185.046 364.43 185.539C363.963 186.019 363.73 186.673 363.73 187.499H361.93C361.97 186.179 362.39 185.133 363.19 184.359C363.99 183.586 365.05 183.199 366.37 183.199C367.716 183.199 368.783 183.579 369.57 184.339C370.37 185.099 370.77 186.133 370.77 187.439C370.77 188.133 370.563 188.859 370.15 189.619C369.75 190.379 369.096 191.253 368.19 192.239L364.39 196.359H371.01V197.999H362.33Z" fill="black"/>
<path d="M350.875 197.999V186.999H352.675V189.099H352.695C352.788 188.365 353.088 187.799 353.595 187.399C354.102 186.999 354.775 186.799 355.615 186.799C356.762 186.799 357.675 187.165 358.355 187.899C359.035 188.619 359.375 189.599 359.375 190.839V191.599H357.575V190.999C357.575 190.159 357.362 189.512 356.935 189.059C356.508 188.592 355.888 188.359 355.075 188.359C353.475 188.359 352.675 189.239 352.675 190.999V197.999H350.875Z" fill="black"/>
<path d="M342.902 198.16C341.568 198.16 340.515 197.787 339.742 197.04C338.982 196.28 338.602 195.253 338.602 193.96V191.04C338.602 189.733 338.982 188.707 339.742 187.96C340.515 187.213 341.568 186.84 342.902 186.84C344.235 186.84 345.282 187.213 346.042 187.96C346.815 188.707 347.202 189.727 347.202 191.02V193.96C347.202 195.253 346.815 196.28 346.042 197.04C345.282 197.787 344.235 198.16 342.902 198.16ZM342.902 196.56C343.688 196.56 344.302 196.34 344.742 195.9C345.182 195.46 345.402 194.813 345.402 193.96V191.04C345.402 190.187 345.182 189.54 344.742 189.1C344.302 188.66 343.688 188.44 342.902 188.44C342.128 188.44 341.515 188.66 341.062 189.1C340.622 189.54 340.402 190.187 340.402 191.04V193.96C340.402 194.813 340.622 195.46 341.062 195.9C341.515 196.34 342.128 196.56 342.902 196.56Z" fill="black"/>
<path d="M332.711 197.998C331.738 197.998 330.958 197.718 330.371 197.158C329.798 196.585 329.511 195.832 329.511 194.898V185.038H325.711V183.398H331.311V194.898C331.311 195.352 331.438 195.712 331.691 195.978C331.944 196.232 332.284 196.358 332.711 196.358H336.111V197.998H332.711Z" fill="black"/>
<path d="M319.316 198.16C317.982 198.16 316.929 197.787 316.156 197.04C315.396 196.28 315.016 195.253 315.016 193.96V191.04C315.016 189.733 315.396 188.707 316.156 187.96C316.929 187.213 317.982 186.84 319.316 186.84C320.649 186.84 321.696 187.213 322.456 187.96C323.229 188.707 323.616 189.727 323.616 191.02V193.96C323.616 195.253 323.229 196.28 322.456 197.04C321.696 197.787 320.649 198.16 319.316 198.16ZM319.316 196.56C320.102 196.56 320.716 196.34 321.156 195.9C321.596 195.46 321.816 194.813 321.816 193.96V191.04C321.816 190.187 321.596 189.54 321.156 189.1C320.716 188.66 320.102 188.44 319.316 188.44C318.542 188.44 317.929 188.66 317.476 189.1C317.036 189.54 316.816 190.187 316.816 191.04V193.96C316.816 194.813 317.036 195.46 317.476 195.9C317.929 196.34 318.542 196.56 319.316 196.56Z" fill="black"/>
<path d="M307.607 198.199C306.273 198.199 305.207 197.825 304.407 197.079C303.62 196.332 303.227 195.305 303.227 193.999V190.999C303.227 189.692 303.62 188.665 304.407 187.919C305.207 187.172 306.273 186.799 307.607 186.799C308.873 186.799 309.893 187.139 310.667 187.819C311.44 188.499 311.847 189.425 311.887 190.599H310.087C310.047 189.892 309.807 189.352 309.367 188.979C308.94 188.592 308.353 188.399 307.607 188.399C306.82 188.399 306.193 188.625 305.727 189.079C305.26 189.519 305.027 190.152 305.027 190.979V193.999C305.027 194.825 305.26 195.465 305.727 195.919C306.193 196.372 306.82 196.599 307.607 196.599C308.353 196.599 308.94 196.405 309.367 196.019C309.807 195.632 310.047 195.092 310.087 194.399H311.887C311.847 195.572 311.44 196.499 310.667 197.179C309.893 197.859 308.873 198.199 307.607 198.199Z" fill="black"/>
</svg>
