<svg width="587" height="122" viewBox="0 0 587 122" fill="none" xmlns="http://www.w3.org/2000/svg">
<rect width="587" height="122" fill="white"/>
<path d="M82.4317 38.3561C85.0376 40.0795 86.5238 42.5006 86.8903 45.6193H94.2195C94.1177 42.4391 93.1404 39.5974 91.2878 37.0942C89.4555 34.5911 86.9717 32.6214 83.8364 31.1851C80.7012 29.7284 77.118 29 73.087 29C69.0966 29 65.4829 29.7386 62.2459 31.2159C59.0292 32.6727 56.4639 34.7244 54.5502 37.3712C52.6568 39.9975 51.7101 43.0751 51.7101 46.6042C51.7101 50.8513 53.1353 54.288 55.9855 56.9143C58.8358 59.5406 62.7039 61.5616 67.5901 62.9773L75.2857 65.1932C77.4845 65.8087 79.5305 66.5268 81.4239 67.3475C83.3173 68.1682 84.8442 69.2352 86.0047 70.5483C87.1651 71.8614 87.7453 73.5644 87.7453 75.6572C87.7453 77.9552 87.0735 79.9659 85.7298 81.6894C84.3861 83.3924 82.564 84.726 80.2635 85.6903C77.9629 86.6342 75.3672 87.1061 72.4762 87.1061C69.9924 87.1061 67.6715 86.7367 65.5135 85.9981C63.3758 85.2389 61.6046 84.09 60.1998 82.5511C58.8154 80.9918 58.0214 79.0221 57.8178 76.642H50C50.2443 80.089 51.2928 83.1154 53.1454 85.7211C55.0185 88.3269 57.5837 90.3581 60.8411 91.8149C64.1189 93.2716 67.9972 94 72.4762 94C77.2809 94 81.3628 93.1896 84.7221 91.5687C88.1016 89.9478 90.6668 87.7626 92.4177 85.0133C94.1889 82.2639 95.0745 79.1862 95.0745 75.7803C95.0745 72.8258 94.474 70.3329 93.2728 68.3016C92.0716 66.2704 90.5447 64.6084 88.692 63.3158C86.8597 62.0027 84.9358 60.9665 82.9203 60.2074C80.9251 59.4482 79.1132 58.8532 77.4845 58.4223L71.1325 56.6989C69.9721 56.3911 68.6996 55.991 67.3152 55.4986C65.9308 54.9856 64.6075 54.3393 63.3452 53.5597C62.083 52.7595 61.0447 51.7644 60.2303 50.5743C59.4363 49.3638 59.0393 47.9173 59.0393 46.2348C59.0393 44.2241 59.6094 42.4288 60.7495 40.849C61.9099 39.2691 63.5183 38.0278 65.5745 37.125C67.6511 36.2222 70.0739 35.7708 72.8427 35.7708C76.6294 35.7708 79.8258 36.6326 82.4317 38.3561Z" fill="#FF5906"/>
<path fill-rule="evenodd" clip-rule="evenodd" d="M111.94 90.8608C115.218 92.8715 119.116 93.8769 123.636 93.8769C126.812 93.8769 129.673 93.3845 132.217 92.3996C134.762 91.3943 136.9 89.9991 138.63 88.214C140.361 86.4085 141.593 84.3157 142.326 81.9356L135.363 79.9659C134.752 81.6073 133.887 82.982 132.767 84.09C131.647 85.1774 130.314 85.9981 128.767 86.5521C127.24 87.0855 125.529 87.3523 123.636 87.3523C120.725 87.3523 118.17 86.7162 115.971 85.4441C113.772 84.1515 112.052 82.2742 110.81 79.812C109.702 77.561 109.097 74.8629 108.994 71.7178L143.058 71.7178V68.6402C143.058 64.2289 142.478 60.5152 141.318 57.4991C140.157 54.483 138.6 52.0619 136.645 50.2358C134.691 48.3892 132.523 47.0556 130.141 46.2348C127.759 45.4141 125.346 45.0038 122.903 45.0038C118.669 45.0038 114.963 46.0502 111.787 48.143C108.632 50.2153 106.168 53.1083 104.397 56.822C102.646 60.5152 101.771 64.7828 101.771 69.625C101.771 74.4672 102.646 78.7143 104.397 82.3665C106.168 85.9981 108.683 88.8295 111.94 90.8608ZM135.729 65.4394C135.729 62.7721 135.2 60.392 134.141 58.2992C133.103 56.2064 131.617 54.5548 129.683 53.3442C127.769 52.1337 125.509 51.5284 122.903 51.5284C120.033 51.5284 117.549 52.2465 115.452 53.6828C113.375 55.0985 111.777 56.9451 110.657 59.2225C109.698 61.1743 109.149 63.2466 109.012 65.4394L135.729 65.4394Z" fill="#FF5906"/>
<path d="M151.442 92.892V45.6193H158.405V53.0057H159.015C159.993 50.482 161.57 48.5226 163.749 47.1274C165.927 45.7116 168.543 45.0038 171.597 45.0038C174.692 45.0038 177.267 45.7116 179.323 47.1274C181.4 48.5226 183.018 50.482 184.179 53.0057H184.668C185.869 50.5641 187.67 48.6252 190.073 47.1889C192.475 45.7322 195.356 45.0038 198.715 45.0038C202.909 45.0038 206.34 46.3272 209.007 48.974C211.674 51.6002 213.007 55.6935 213.007 61.2538V92.892H205.8V61.2538C205.8 57.7658 204.853 55.2729 202.96 53.7751C201.067 52.2773 198.837 51.5284 196.272 51.5284C192.974 51.5284 190.419 52.5338 188.607 54.5445C186.795 56.5347 185.889 59.0584 185.889 62.1155V92.892H178.56V60.5152C178.56 57.8273 177.695 55.6627 175.964 54.0213C174.234 52.3594 172.004 51.5284 169.276 51.5284C167.403 51.5284 165.652 52.0311 164.024 53.0365C162.415 54.0418 161.112 55.437 160.115 57.2221C159.137 58.9866 158.649 61.0281 158.649 63.3466V92.892H151.442Z" fill="#FF5906"/>
<path d="M218.841 29.8617L235.942 92.892H243.76L257.563 42.6648H258.052L271.855 92.892H279.673L296.774 29.8617H289.079L276.008 81.197H275.397L262.083 29.8617H253.532L240.217 81.197H239.607L226.536 29.8617H218.841Z" fill="#3DBF00"/>
<path fill-rule="evenodd" clip-rule="evenodd" d="M317.953 93.8769C313.434 93.8769 309.535 92.8715 306.257 90.8608C303 88.8295 300.485 85.9981 298.714 82.3665C296.963 78.7143 296.088 74.4672 296.088 69.625C296.088 64.7828 296.963 60.5152 298.714 56.822C300.485 53.1083 302.949 50.2153 306.104 48.143C309.28 46.0502 312.986 45.0038 317.22 45.0038C319.663 45.0038 322.076 45.4141 324.458 46.2348C326.84 47.0556 329.008 48.3892 330.963 50.2358C332.917 52.0619 334.474 54.483 335.635 57.4991C336.795 60.5152 337.376 64.2289 337.376 68.6402V71.7178L303.311 71.7178C303.414 74.8629 304.02 77.561 305.127 79.812C306.369 82.2742 308.089 84.1515 310.288 85.4441C312.487 86.7162 315.042 87.3523 317.953 87.3523C319.847 87.3523 321.557 87.0855 323.084 86.5521C324.631 85.9981 325.964 85.1774 327.084 84.09C328.204 82.982 329.069 81.6073 329.68 79.9659L336.643 81.9356C335.91 84.3157 334.678 86.4085 332.948 88.214C331.217 89.9991 329.079 91.3943 326.534 92.3996C323.99 93.3845 321.129 93.8769 317.953 93.8769ZM303.329 65.4394L330.046 65.4394C330.046 62.7721 329.517 60.392 328.458 58.2992C327.42 56.2064 325.934 54.5548 324 53.3442C322.086 52.1337 319.826 51.5284 317.22 51.5284C314.35 51.5284 311.866 52.2465 309.769 53.6828C307.692 55.0985 306.094 56.9451 304.974 59.2225C304.015 61.1743 303.466 63.2466 303.329 65.4394Z" fill="#3DBF00"/>
<path fill-rule="evenodd" clip-rule="evenodd" d="M346.736 29.8617V92.892H353.699V85.6288H354.554C355.083 86.4905 355.837 87.578 356.814 88.8911C357.791 90.1837 359.186 91.343 360.998 92.3688C362.809 93.3742 365.222 93.8769 368.235 93.8769C372.144 93.8769 375.595 92.8818 378.588 90.8916C381.58 88.8808 383.922 86.0494 385.611 82.3973C387.301 78.7246 388.146 74.3851 388.146 69.3788C388.146 64.4135 387.301 60.1048 385.611 56.4527C383.922 52.8005 381.57 49.9793 378.557 47.9891C375.544 45.9989 372.063 45.0038 368.113 45.0038C365.059 45.0038 362.636 45.5167 360.845 46.5426C359.074 47.548 357.71 48.697 356.753 49.9896C355.816 51.2617 355.083 52.3081 354.554 53.1288H353.943V29.8617H346.736ZM355.378 78.7041C354.34 75.9752 353.821 72.8258 353.821 69.2557C353.821 65.7266 354.33 62.6387 355.348 59.9919C356.366 57.3247 357.872 55.2524 359.868 53.7751C361.863 52.2773 364.326 51.5284 367.258 51.5284C370.312 51.5284 372.846 52.3183 374.862 53.8982C376.898 55.4575 378.415 57.5811 379.412 60.2689C380.43 62.9362 380.939 65.9318 380.939 69.2557C380.939 72.6206 380.42 75.6777 379.382 78.4271C378.364 81.1559 376.837 83.3308 374.801 84.9517C372.785 86.5521 370.271 87.3523 367.258 87.3523C364.367 87.3523 361.924 86.5931 359.929 85.0748C357.934 83.536 356.417 81.4124 355.378 78.7041Z" fill="#3DBF00"/>
<path d="M401.843 93.3845C400.337 93.3845 399.044 92.8407 397.965 91.7533C396.886 90.6659 396.346 89.363 396.346 87.8447C396.346 86.3264 396.886 85.0235 397.965 83.9361C399.044 82.8486 400.337 82.3049 401.843 82.3049C403.35 82.3049 404.643 82.8486 405.722 83.9361C406.801 85.0235 407.34 86.3264 407.34 87.8447C407.34 88.8501 407.086 89.7734 406.577 90.6146C406.088 91.4558 405.426 92.1329 404.592 92.6458C403.777 93.1383 402.861 93.3845 401.843 93.3845Z" fill="#0052F0"/>
<path fill-rule="evenodd" clip-rule="evenodd" d="M418.67 29.8617V92.892H426.244V69.8712L439.925 69.8712C444.791 69.8712 448.781 68.9787 451.896 67.1937C455.011 65.3881 457.312 62.967 458.798 59.9304C460.304 56.8938 461.058 53.5186 461.058 49.8049C461.058 46.0912 460.304 42.7263 458.798 39.7102C457.291 36.6941 454.97 34.3038 451.835 32.5393C448.72 30.7543 444.709 29.8617 439.803 29.8617H418.67ZM439.681 63.1004C443.04 63.1004 445.737 62.5156 447.773 61.3461C449.809 60.1766 451.285 58.5967 452.201 56.6065C453.138 54.5958 453.606 52.3286 453.606 49.8049C453.606 47.2813 453.138 45.0243 452.201 43.0341C451.285 41.0439 449.799 39.4845 447.743 38.3561C445.687 37.2071 442.958 36.6326 439.559 36.6326H426.244V63.1004L439.681 63.1004Z" fill="#EE00D6"/>
<path d="M469.7 92.892V45.6193H476.663V52.7595H477.152C478.007 50.4205 479.554 48.5226 481.794 47.0658C484.033 45.6091 486.558 44.8807 489.367 44.8807C489.896 44.8807 490.558 44.8909 491.352 44.9115C492.146 44.932 492.747 44.9628 493.154 45.0038V52.3902C492.91 52.3286 492.35 52.2363 491.474 52.1132C490.619 51.9695 489.713 51.8977 488.756 51.8977C486.476 51.8977 484.44 52.3799 482.649 53.3442C480.877 54.288 479.473 55.6012 478.434 57.2836C477.416 58.9455 476.907 60.8434 476.907 62.9773V92.892H469.7Z" fill="#EE00D6"/>
<path fill-rule="evenodd" clip-rule="evenodd" d="M505.599 90.83C508.795 92.8613 512.511 93.8769 516.745 93.8769C520.98 93.8769 524.685 92.8613 527.861 90.83C531.058 88.7988 533.541 85.9571 535.313 82.3049C537.104 78.6528 538 74.3851 538 69.5019C538 64.5776 537.104 60.2792 535.313 56.6065C533.541 52.9339 531.058 50.0819 527.861 48.0507C524.685 46.0194 520.98 45.0038 516.745 45.0038C512.511 45.0038 508.795 46.0194 505.599 48.0507C502.423 50.0819 499.939 52.9339 498.148 56.6065C496.376 60.2792 495.491 64.5776 495.491 69.5019C495.491 74.3851 496.376 78.6528 498.148 82.3049C499.939 85.9571 502.423 88.7988 505.599 90.83ZM524.685 84.8594C522.609 86.5213 519.962 87.3523 516.745 87.3523C513.529 87.3523 510.882 86.5213 508.805 84.8594C506.729 83.1974 505.192 81.0123 504.194 78.304C503.197 75.5956 502.698 72.6616 502.698 69.5019C502.698 66.3422 503.197 63.3979 504.194 60.669C505.192 57.9402 506.729 55.7345 508.805 54.0521C510.882 52.3696 513.529 51.5284 516.745 51.5284C519.962 51.5284 522.609 52.3696 524.685 54.0521C526.762 55.7345 528.299 57.9402 529.297 60.669C530.294 63.3979 530.793 66.3422 530.793 69.5019C530.793 72.6616 530.294 75.5956 529.297 78.304C528.299 81.0123 526.762 83.1974 524.685 84.8594Z" fill="#EE00D6"/>
</svg>
