<svg width="340" height="226" viewBox="0 0 340 226" fill="none" xmlns="http://www.w3.org/2000/svg">
<rect y="190" width="340" height="12" fill="white"/>
<rect y="202" width="340" height="12" fill="#2DC66A"/>
<rect y="214" width="340" height="12" fill="#070562"/>
<path d="M340 0H0V190H340V0Z" fill="#FF8C19"/>
<path fill-rule="evenodd" clip-rule="evenodd" d="M136.83 66.8137C136.83 57.5886 129.404 50.1104 120.244 50.1104C111.085 50.1104 103.659 57.5886 103.659 66.8137C103.659 76.0387 111.085 83.517 120.244 83.517C129.404 83.517 136.83 76.0387 136.83 66.8137ZM138.903 66.8137C138.903 56.4355 130.549 48.0225 120.244 48.0225C109.94 48.0225 101.586 56.4355 101.586 66.8137C101.586 77.1918 109.94 85.6049 120.244 85.6049C130.549 85.6049 138.903 77.1918 138.903 66.8137Z" fill="white"/>
<path d="M114.024 70.9883C115.169 70.9883 116.098 71.923 116.098 73.0762C116.098 74.2293 115.169 75.1641 114.024 75.1641C112.879 75.1641 111.951 74.2293 111.951 73.0762C111.951 71.923 112.879 70.9883 114.024 70.9883Z" fill="white"/>
<path d="M114.024 58.4619C115.169 58.4619 116.098 59.3967 116.098 60.5498C116.098 61.703 115.169 62.6377 114.024 62.6377C112.879 62.6377 111.951 61.703 111.951 60.5498C111.951 59.3967 112.879 58.4619 114.024 58.4619Z" fill="white"/>
<path fill-rule="evenodd" clip-rule="evenodd" d="M120.244 76.2082C125.397 76.2082 129.573 72.0017 129.573 66.8126C129.573 61.6235 125.397 57.417 120.244 57.417V55.3291C126.542 55.3291 131.647 60.4704 131.647 66.8126C131.647 73.1549 126.542 78.2961 120.244 78.2961V76.2082Z" fill="white"/>
<path fill-rule="evenodd" clip-rule="evenodd" d="M186.586 66.8137C186.586 57.5886 179.16 50.1104 170 50.1104C160.84 50.1104 153.415 57.5886 153.415 66.8137C153.415 76.0387 160.84 83.517 170 83.517C179.16 83.517 186.586 76.0387 186.586 66.8137ZM188.659 66.8137C188.659 56.4355 180.305 48.0225 170 48.0225C159.695 48.0225 151.342 56.4355 151.342 66.8137C151.342 77.1918 159.695 85.6049 170 85.6049C180.305 85.6049 188.659 77.1918 188.659 66.8137Z" fill="white"/>
<path fill-rule="evenodd" clip-rule="evenodd" d="M172.073 54.2852V68.9005H170V54.2852H172.073Z" fill="white"/>
<path fill-rule="evenodd" clip-rule="evenodd" d="M174.146 45.9336H165.854V43.8457H174.146V45.9336Z" fill="white"/>
<path fill-rule="evenodd" clip-rule="evenodd" d="M87.074 66.8137C87.074 57.5886 79.6485 50.1104 70.4886 50.1104C61.3287 50.1104 53.9032 57.5886 53.9032 66.8137C53.9032 76.0387 61.3287 83.517 70.4886 83.517C79.6485 83.517 87.074 76.0387 87.074 66.8137ZM89.1472 66.8137C89.1472 56.4355 80.7935 48.0225 70.4886 48.0225C60.1837 48.0225 51.8301 56.4355 51.8301 66.8137C51.8301 77.1918 60.1837 85.6049 70.4886 85.6049C80.7935 85.6049 89.1472 77.1918 89.1472 66.8137Z" fill="white"/>
<path d="M65.0716 61.3633C65.9838 61.3633 66.7592 61.5011 67.3977 61.7767C68.0514 62.0371 68.5987 62.412 69.0397 62.9021C69.4804 63.3921 69.815 63.9508 70.0431 64.5787L67.7398 65.4974C67.542 64.7931 67.2227 64.2571 66.782 63.8897C66.3562 63.5069 65.7937 63.3155 65.0944 63.3155C64.4103 63.3155 63.8248 63.4762 63.3385 63.7978C62.8519 64.1041 62.4793 64.5557 62.221 65.1528C61.9776 65.75 61.8561 66.4849 61.8561 67.3577C61.8561 68.2152 61.9853 68.9424 62.2438 69.5395C62.5021 70.1367 62.8747 70.5883 63.3613 70.8946C63.8476 71.2009 64.4254 71.3539 65.0944 71.3539C65.6113 71.3539 66.0597 71.2698 66.4399 71.1013C66.8199 70.9176 67.1315 70.6649 67.3749 70.3434C67.6332 70.0066 67.8082 69.6007 67.8994 69.1261L70.1115 69.8841C69.8986 70.5731 69.5642 71.1779 69.1081 71.6984C68.6671 72.2037 68.1121 72.6019 67.4433 72.8927C66.7743 73.1683 66.0066 73.3061 65.14 73.3061C64.0149 73.3061 63.0192 73.0687 62.1526 72.5942C61.286 72.1196 60.6093 71.4381 60.123 70.5501C59.6515 69.6467 59.416 68.5749 59.416 67.3347C59.416 66.0945 59.6515 65.0303 60.123 64.1423C60.6093 63.2389 61.2783 62.5498 62.1298 62.0753C62.9964 61.6007 63.977 61.3633 65.0716 61.3633Z" fill="white"/>
<path d="M76.7357 61.3633C77.6479 61.3633 78.4232 61.5011 79.0618 61.7767C79.7157 62.0371 80.263 62.412 80.7037 62.9021C81.1447 63.3921 81.4791 63.9508 81.7072 64.5787L79.4039 65.4974C79.2063 64.7931 78.887 64.2571 78.4461 63.8897C78.0204 63.5069 77.458 63.3155 76.7585 63.3155C76.0743 63.3155 75.4891 63.4762 75.0025 63.7978C74.5161 64.1041 74.1436 64.5557 73.8851 65.1528C73.6419 65.75 73.5202 66.4849 73.5202 67.3577C73.5202 68.2152 73.6496 68.9424 73.9079 69.5395C74.1664 70.1367 74.539 70.5883 75.0253 70.8946C75.5119 71.2009 76.0897 71.3539 76.7585 71.3539C77.2755 71.3539 77.724 71.2698 78.104 71.1013C78.4842 70.9176 78.7958 70.6649 79.039 70.3434C79.2975 70.0066 79.4723 69.6007 79.5635 69.1261L81.7756 69.8841C81.5629 70.5731 81.2282 71.1779 80.7722 71.6984C80.3314 72.2037 79.7764 72.6019 79.1074 72.8927C78.4386 73.1683 77.6707 73.3061 76.8041 73.3061C75.6792 73.3061 74.6832 73.0687 73.8167 72.5942C72.9501 72.1196 72.2736 71.4381 71.787 70.5501C71.3158 69.6467 71.0801 68.5749 71.0801 67.3347C71.0801 66.0945 71.3158 65.0303 71.787 64.1423C72.2736 63.2389 72.9426 62.5498 73.7939 62.0753C74.6604 61.6007 75.6411 61.3633 76.7357 61.3633Z" fill="white"/>
<path fill-rule="evenodd" clip-rule="evenodd" d="M286.097 66.8137C286.097 57.5886 278.671 50.1104 269.512 50.1104C260.353 50.1104 252.927 57.5886 252.927 66.8137C252.927 76.0387 260.353 83.517 269.512 83.517C278.671 83.517 286.097 76.0387 286.097 66.8137ZM288.171 66.8137C288.171 56.4355 279.818 48.0225 269.512 48.0225C259.206 48.0225 250.854 56.4355 250.854 66.8137C250.854 77.1918 259.206 85.6049 269.512 85.6049C279.818 85.6049 288.171 77.1918 288.171 66.8137Z" fill="white"/>
<path fill-rule="evenodd" clip-rule="evenodd" d="M284.023 66.8127C284.023 58.7408 277.526 52.1973 269.511 52.1973C261.496 52.1973 254.999 58.7408 254.999 66.8127C254.999 74.8845 261.496 81.4281 269.511 81.4281C277.526 81.4281 284.023 74.8845 284.023 66.8127ZM286.097 66.8127C286.097 57.5876 278.67 50.1094 269.511 50.1094C260.352 50.1094 252.926 57.5876 252.926 66.8127C252.926 76.0377 260.352 83.516 269.511 83.516C278.67 83.516 286.097 76.0377 286.097 66.8127Z" fill="#FF8C19"/>
<path d="M255 66.8127C255 74.8845 261.497 81.428 269.512 81.428V52.1973C261.497 52.1973 255 58.7408 255 66.8127Z" fill="white"/>
<path fill-rule="evenodd" clip-rule="evenodd" d="M269.513 108.571H70.4886C61.3287 108.571 53.9032 116.05 53.9032 125.275C53.9032 134.5 61.3287 141.978 70.4886 141.978H269.513C278.672 141.978 286.098 134.5 286.098 125.275C286.098 116.05 278.672 108.571 269.513 108.571ZM70.4886 106.483C60.1837 106.483 51.8301 114.896 51.8301 125.275C51.8301 135.653 60.1837 144.066 70.4886 144.066H269.513C279.819 144.066 288.172 135.653 288.172 125.275C288.172 114.896 279.819 106.483 269.513 106.483H70.4886Z" fill="white"/>
<path d="M266.622 131.789C265.378 131.789 264.242 131.547 263.213 131.063C262.185 130.578 261.372 129.893 260.775 129.008L262.616 127.405C262.981 128.09 263.504 128.641 264.184 129.058C264.88 129.459 265.71 129.66 266.671 129.66C267.434 129.66 268.04 129.526 268.488 129.259C268.935 128.992 269.159 128.616 269.159 128.131C269.159 127.814 269.051 127.538 268.836 127.304C268.637 127.054 268.247 126.862 267.667 126.728L265.054 126.177C263.728 125.91 262.782 125.484 262.218 124.899C261.654 124.298 261.372 123.538 261.372 122.619C261.372 121.934 261.571 121.3 261.97 120.715C262.368 120.13 262.948 119.663 263.711 119.312C264.491 118.944 265.419 118.761 266.497 118.761C267.741 118.761 268.803 118.986 269.682 119.437C270.561 119.872 271.232 120.498 271.697 121.316L269.856 122.87C269.541 122.202 269.076 121.709 268.463 121.392C267.849 121.057 267.211 120.89 266.547 120.89C266.016 120.89 265.56 120.957 265.179 121.091C264.797 121.224 264.507 121.408 264.308 121.642C264.109 121.876 264.01 122.152 264.01 122.469C264.01 122.803 264.134 123.095 264.383 123.346C264.631 123.596 265.079 123.788 265.726 123.922L268.562 124.523C269.756 124.757 270.594 125.158 271.075 125.726C271.572 126.277 271.821 126.954 271.821 127.755C271.821 128.557 271.614 129.267 271.199 129.885C270.785 130.486 270.188 130.954 269.408 131.288C268.629 131.622 267.7 131.789 266.622 131.789Z" fill="white"/>
<path d="M247.736 131.539V119.011H250.1L250.274 122.268L249.926 121.918C250.158 121.199 250.489 120.606 250.921 120.139C251.369 119.654 251.891 119.304 252.488 119.086C253.102 118.869 253.749 118.761 254.429 118.761C255.308 118.761 256.095 118.936 256.792 119.287C257.505 119.621 258.069 120.13 258.484 120.815C258.898 121.5 259.106 122.369 259.106 123.421V131.539H256.444V124.248C256.444 123.012 256.187 122.16 255.672 121.692C255.175 121.208 254.545 120.966 253.782 120.966C253.234 120.966 252.704 121.099 252.189 121.366C251.675 121.617 251.244 122.026 250.896 122.594C250.564 123.162 250.398 123.922 250.398 124.874V131.539H247.736Z" fill="white"/>
<path d="M239.462 118.761C240.673 118.761 241.743 119.02 242.671 119.537C243.6 120.055 244.322 120.807 244.836 121.792C245.367 122.761 245.632 123.922 245.632 125.275C245.632 126.628 245.367 127.797 244.836 128.783C244.322 129.752 243.6 130.495 242.671 131.013C241.743 131.53 240.673 131.789 239.462 131.789C238.251 131.789 237.182 131.53 236.253 131.013C235.324 130.495 234.594 129.752 234.064 128.783C233.533 127.797 233.268 126.628 233.268 125.275C233.268 123.922 233.533 122.761 234.064 121.792C234.594 120.807 235.324 120.055 236.253 119.537C237.182 119.02 238.251 118.761 239.462 118.761ZM239.462 120.865C238.716 120.865 238.077 121.041 237.547 121.392C237.032 121.726 236.634 122.218 236.352 122.87C236.071 123.521 235.93 124.323 235.93 125.275C235.93 126.21 236.071 127.012 236.352 127.68C236.634 128.332 237.032 128.833 237.547 129.184C238.077 129.518 238.716 129.685 239.462 129.685C240.209 129.685 240.839 129.518 241.353 129.184C241.867 128.833 242.265 128.332 242.547 127.68C242.829 127.012 242.97 126.21 242.97 125.275C242.97 124.323 242.829 123.521 242.547 122.87C242.265 122.218 241.867 121.726 241.353 121.392C240.839 121.041 240.209 120.865 239.462 120.865Z" fill="white"/>
<path d="M211.693 131.539V119.011H214.057L214.181 121.116C214.612 120.314 215.185 119.721 215.898 119.337C216.628 118.953 217.399 118.761 218.211 118.761C219.107 118.761 219.928 118.97 220.674 119.387C221.437 119.788 222.009 120.398 222.391 121.216C222.656 120.665 223.021 120.206 223.486 119.838C223.95 119.471 224.464 119.203 225.028 119.036C225.592 118.853 226.148 118.761 226.695 118.761C227.491 118.761 228.237 118.928 228.934 119.262C229.63 119.596 230.194 120.105 230.626 120.79C231.057 121.475 231.272 122.352 231.272 123.421V131.539H228.61V123.847C228.61 122.828 228.37 122.093 227.889 121.642C227.408 121.191 226.794 120.966 226.048 120.966C225.468 120.966 224.928 121.108 224.431 121.392C223.95 121.675 223.56 122.101 223.262 122.669C222.963 123.221 222.814 123.905 222.814 124.724V131.539H220.152V123.847C220.152 122.828 219.911 122.093 219.43 121.642C218.949 121.191 218.336 120.966 217.589 120.966C217.092 120.966 216.594 121.099 216.097 121.366C215.599 121.634 215.185 122.051 214.853 122.619C214.521 123.187 214.355 123.939 214.355 124.874V131.539H211.693Z" fill="white"/>
<path d="M189.322 131.539V119.011H191.686L191.81 121.116C192.241 120.314 192.813 119.721 193.527 119.337C194.256 118.953 195.028 118.761 195.84 118.761C196.736 118.761 197.557 118.97 198.303 119.387C199.066 119.788 199.638 120.398 200.02 121.216C200.285 120.665 200.65 120.206 201.114 119.838C201.579 119.471 202.093 119.203 202.657 119.036C203.221 118.853 203.776 118.761 204.324 118.761C205.12 118.761 205.866 118.928 206.563 119.262C207.259 119.596 207.824 120.105 208.255 120.79C208.686 121.475 208.902 122.352 208.902 123.421V131.539H206.239V123.847C206.239 122.828 205.999 122.093 205.518 121.642C205.037 121.191 204.423 120.966 203.677 120.966C203.096 120.966 202.557 121.108 202.06 121.392C201.579 121.675 201.189 122.101 200.891 122.669C200.592 123.221 200.443 123.905 200.443 124.724V131.539H197.781V123.847C197.781 122.828 197.54 122.093 197.059 121.642C196.578 121.191 195.965 120.966 195.218 120.966C194.721 120.966 194.223 121.099 193.726 121.366C193.228 121.634 192.813 122.051 192.482 122.619C192.15 123.187 191.984 123.939 191.984 124.874V131.539H189.322Z" fill="white"/>
<path d="M181.048 118.761C182.259 118.761 183.329 119.02 184.257 119.537C185.186 120.055 185.908 120.807 186.422 121.792C186.953 122.761 187.218 123.922 187.218 125.275C187.218 126.628 186.953 127.797 186.422 128.783C185.908 129.752 185.186 130.495 184.257 131.013C183.329 131.53 182.259 131.789 181.048 131.789C179.837 131.789 178.768 131.53 177.839 131.013C176.91 130.495 176.18 129.752 175.65 128.783C175.119 127.797 174.854 126.628 174.854 125.275C174.854 123.922 175.119 122.761 175.65 121.792C176.18 120.807 176.91 120.055 177.839 119.537C178.768 119.02 179.837 118.761 181.048 118.761ZM181.048 120.865C180.302 120.865 179.663 121.041 179.133 121.392C178.618 121.726 178.22 122.218 177.938 122.87C177.656 123.521 177.515 124.323 177.515 125.275C177.515 126.21 177.656 127.012 177.938 127.68C178.22 128.332 178.618 128.833 179.133 129.184C179.663 129.518 180.302 129.685 181.048 129.685C181.794 129.685 182.425 129.518 182.939 129.184C183.453 128.833 183.851 128.332 184.133 127.68C184.415 127.012 184.556 126.21 184.556 125.275C184.556 124.323 184.415 123.521 184.133 122.87C183.851 122.218 183.453 121.726 182.939 121.392C182.425 121.041 181.794 120.865 181.048 120.865Z" fill="white"/>
<path d="M168.297 118.761C169.292 118.761 170.138 118.911 170.834 119.212C171.547 119.496 172.145 119.905 172.625 120.439C173.106 120.974 173.471 121.584 173.72 122.268L171.207 123.271C170.992 122.502 170.644 121.918 170.163 121.517C169.698 121.099 169.085 120.89 168.322 120.89C167.575 120.89 166.937 121.066 166.406 121.417C165.875 121.751 165.469 122.243 165.187 122.895C164.922 123.546 164.789 124.348 164.789 125.3C164.789 126.235 164.93 127.029 165.212 127.68C165.494 128.332 165.9 128.824 166.431 129.159C166.962 129.493 167.592 129.66 168.322 129.66C168.885 129.66 169.375 129.568 169.789 129.384C170.204 129.184 170.544 128.908 170.809 128.557C171.091 128.19 171.282 127.747 171.382 127.229L173.795 128.056C173.563 128.808 173.198 129.468 172.7 130.035C172.219 130.587 171.614 131.021 170.884 131.338C170.154 131.639 169.317 131.789 168.371 131.789C167.144 131.789 166.058 131.53 165.112 131.013C164.167 130.495 163.429 129.752 162.898 128.783C162.384 127.797 162.127 126.628 162.127 125.275C162.127 123.922 162.384 122.761 162.898 121.792C163.429 120.807 164.159 120.055 165.087 119.537C166.033 119.02 167.103 118.761 168.297 118.761Z" fill="white"/>
<path d="M148.412 131.789C147.168 131.789 146.073 131.53 145.128 131.013C144.183 130.495 143.445 129.752 142.914 128.783C142.4 127.797 142.143 126.628 142.143 125.275C142.143 123.922 142.4 122.761 142.914 121.792C143.445 120.807 144.174 120.055 145.103 119.537C146.032 119.02 147.085 118.761 148.263 118.761C149.473 118.761 150.502 119.011 151.347 119.512C152.193 120.013 152.84 120.698 153.288 121.567C153.736 122.435 153.96 123.421 153.96 124.523C153.96 124.824 153.951 125.108 153.935 125.375C153.918 125.642 153.893 125.876 153.86 126.077H143.859V124.022H152.691L151.372 124.423C151.372 123.287 151.09 122.419 150.526 121.817C149.963 121.199 149.191 120.89 148.213 120.89C147.5 120.89 146.878 121.057 146.347 121.392C145.816 121.726 145.41 122.227 145.128 122.895C144.846 123.546 144.705 124.348 144.705 125.3C144.705 126.235 144.854 127.029 145.153 127.68C145.451 128.332 145.874 128.824 146.422 129.159C146.969 129.493 147.616 129.66 148.362 129.66C149.191 129.66 149.863 129.501 150.377 129.184C150.891 128.866 151.298 128.424 151.596 127.856L153.711 128.858C153.412 129.459 153.006 129.985 152.492 130.436C151.994 130.871 151.397 131.205 150.701 131.439C150.004 131.672 149.241 131.789 148.412 131.789Z" fill="white"/>
<path d="M139.199 119.011H141.986L137.035 131.538H134.124L129.148 119.011H132.059L135.592 129.208L139.199 119.011Z" fill="white"/>
<path d="M126.774 116.907C126.193 116.907 125.745 116.765 125.43 116.481C125.132 116.18 124.982 115.762 124.982 115.228C124.982 114.693 125.132 114.284 125.43 114C125.745 113.716 126.193 113.574 126.774 113.574C127.338 113.574 127.769 113.716 128.067 114C128.382 114.284 128.54 114.693 128.54 115.228C128.54 115.762 128.382 116.18 128.067 116.481C127.769 116.765 127.338 116.907 126.774 116.907ZM128.092 119.011V131.539H125.43V119.011H128.092Z" fill="white"/>
<path d="M119.763 115.327V127.779C119.763 128.397 119.921 128.848 120.236 129.132C120.568 129.416 121.007 129.558 121.554 129.558C122.002 129.558 122.392 129.492 122.724 129.358C123.055 129.208 123.362 129.007 123.644 128.757L124.241 130.711C123.86 131.045 123.387 131.312 122.823 131.513C122.276 131.696 121.662 131.788 120.982 131.788C120.269 131.788 119.614 131.671 119.017 131.437C118.42 131.204 117.955 130.828 117.624 130.31C117.292 129.775 117.118 129.082 117.101 128.23V116.079L119.763 115.327ZM124.042 119.01V121.115H114.713V119.01H124.042Z" fill="white"/>
<path d="M110.862 123.496C110.862 122.661 110.63 122.018 110.166 121.567C109.718 121.099 109.096 120.865 108.3 120.865C107.554 120.865 106.915 121.041 106.384 121.392C105.854 121.742 105.464 122.31 105.215 123.095L102.976 122.143C103.291 121.124 103.905 120.306 104.817 119.688C105.746 119.07 106.94 118.761 108.399 118.761C109.395 118.761 110.274 118.928 111.037 119.262C111.799 119.579 112.397 120.064 112.828 120.715C113.276 121.366 113.499 122.202 113.499 123.221V128.808C113.499 129.426 113.806 129.735 114.42 129.735C114.718 129.735 115.009 129.693 115.291 129.61L115.141 131.464C114.76 131.647 114.279 131.739 113.698 131.739C113.168 131.739 112.687 131.647 112.256 131.464C111.841 131.263 111.509 130.971 111.26 130.587C111.028 130.186 110.912 129.693 110.912 129.108V128.933L111.459 128.908C111.31 129.559 111.003 130.102 110.539 130.537C110.075 130.954 109.536 131.272 108.922 131.489C108.308 131.689 107.686 131.789 107.056 131.789C106.277 131.789 105.572 131.664 104.941 131.413C104.328 131.163 103.838 130.787 103.474 130.286C103.125 129.768 102.951 129.133 102.951 128.382C102.951 127.446 103.25 126.678 103.847 126.077C104.46 125.475 105.323 125.066 106.434 124.849L111.26 123.897L111.236 125.776L107.728 126.503C107.031 126.636 106.509 126.828 106.16 127.079C105.812 127.33 105.638 127.697 105.638 128.181C105.638 128.649 105.812 129.025 106.16 129.309C106.525 129.576 107.006 129.71 107.603 129.71C108.018 129.71 108.416 129.66 108.798 129.559C109.196 129.459 109.552 129.301 109.867 129.083C110.182 128.85 110.423 128.557 110.589 128.206C110.771 127.839 110.862 127.405 110.862 126.904V123.496Z" fill="white"/>
<path d="M96.0076 131.789C94.7637 131.789 93.669 131.53 92.7237 131.013C91.7783 130.495 91.0402 129.752 90.5095 128.783C89.9954 127.797 89.7383 126.628 89.7383 125.275C89.7383 123.922 89.9954 122.761 90.5095 121.792C91.0402 120.807 91.77 120.055 92.6988 119.537C93.6276 119.02 94.6807 118.761 95.8583 118.761C97.069 118.761 98.0973 119.011 98.9432 119.512C99.789 120.013 100.436 120.698 100.884 121.567C101.331 122.435 101.555 123.421 101.555 124.523C101.555 124.824 101.547 125.108 101.53 125.375C101.514 125.642 101.489 125.876 101.456 126.077H91.4549V124.022H100.287L98.968 124.423C98.968 123.287 98.6861 122.419 98.1222 121.817C97.5583 121.199 96.7871 120.89 95.8085 120.89C95.0954 120.89 94.4734 121.057 93.9427 121.392C93.4119 121.726 93.0056 122.227 92.7237 122.895C92.4417 123.546 92.3007 124.348 92.3007 125.3C92.3007 126.235 92.45 127.029 92.7485 127.68C93.0471 128.332 93.47 128.824 94.0173 129.159C94.5646 129.493 95.2115 129.66 95.9578 129.66C96.7871 129.66 97.4588 129.501 97.9729 129.184C98.4871 128.866 98.8934 128.424 99.1919 127.856L101.307 128.858C101.008 129.459 100.602 129.985 100.088 130.436C99.59 130.871 98.9929 131.205 98.2963 131.439C97.5997 131.672 96.8368 131.789 96.0076 131.789Z" fill="white"/>
<path d="M81.793 131.539V119.011H84.0569L84.3057 121.266C84.6374 120.448 85.1266 119.83 85.7735 119.412C86.4369 118.978 87.2496 118.761 88.2115 118.761C88.4603 118.761 88.7091 118.786 88.9578 118.836C89.2066 118.869 89.4139 118.928 89.5798 119.011L89.2066 121.366C89.0242 121.3 88.8169 121.25 88.5847 121.216C88.3691 121.166 88.0705 121.141 87.6891 121.141C87.1749 121.141 86.6691 121.283 86.1715 121.567C85.674 121.834 85.2593 122.243 84.9276 122.795C84.6125 123.346 84.4549 124.047 84.4549 124.899V131.539H81.793Z" fill="white"/>
<path d="M74.4393 118.761C75.4344 118.761 76.2803 118.911 76.9769 119.212C77.69 119.496 78.2871 119.905 78.7681 120.439C79.249 120.974 79.6139 121.584 79.8627 122.268L77.35 123.271C77.1344 122.502 76.7861 121.918 76.3051 121.517C75.8408 121.099 75.2271 120.89 74.4642 120.89C73.7178 120.89 73.0793 121.066 72.5486 121.417C72.0178 121.751 71.6115 122.243 71.3295 122.895C71.0642 123.546 70.9315 124.348 70.9315 125.3C70.9315 126.235 71.0725 127.029 71.3544 127.68C71.6364 128.332 72.0427 128.824 72.5734 129.159C73.1042 129.493 73.7344 129.66 74.4642 129.66C75.0281 129.66 75.5173 129.568 75.932 129.384C76.3466 129.184 76.6866 128.908 76.952 128.557C77.2339 128.19 77.4247 127.747 77.5242 127.229L79.9373 128.056C79.7051 128.808 79.3403 129.468 78.8427 130.035C78.3617 130.587 77.7564 131.021 77.0266 131.338C76.2968 131.639 75.4593 131.789 74.5139 131.789C73.2866 131.789 72.2003 131.53 71.2549 131.013C70.3095 130.495 69.5715 129.752 69.0407 128.783C68.5266 127.797 68.2695 126.628 68.2695 125.275C68.2695 123.922 68.5266 122.761 69.0407 121.792C69.5715 120.807 70.3012 120.055 71.23 119.537C72.1754 119.02 73.2451 118.761 74.4393 118.761Z" fill="white"/>
<path fill-rule="evenodd" clip-rule="evenodd" d="M236.342 66.8137C236.342 57.5886 228.915 50.1104 219.756 50.1104C210.597 50.1104 203.171 57.5886 203.171 66.8137C203.171 76.0387 210.597 83.517 219.756 83.517C228.915 83.517 236.342 76.0387 236.342 66.8137ZM238.415 66.8137C238.415 56.4355 230.062 48.0225 219.756 48.0225C209.45 48.0225 201.098 56.4355 201.098 66.8137C201.098 77.1918 209.45 85.6049 219.756 85.6049C230.062 85.6049 238.415 77.1918 238.415 66.8137Z" fill="white"/>
<path d="M219.752 60.5325C219.172 60.5325 218.724 60.3905 218.409 60.1066C218.11 59.8059 217.961 59.3883 217.961 58.8538C217.961 58.3193 218.11 57.9101 218.409 57.6261C218.724 57.3422 219.172 57.2002 219.752 57.2002C220.316 57.2002 220.747 57.3422 221.046 57.6261C221.361 57.9101 221.518 58.3193 221.518 58.8538C221.518 59.3883 221.361 59.8059 221.046 60.1066C220.747 60.3905 220.316 60.5325 219.752 60.5325ZM221.071 62.6371V75.1646H218.409V62.6371H221.071Z" fill="white"/>
</svg>
