<svg width="340" height="226" viewBox="0 0 340 226" fill="none" xmlns="http://www.w3.org/2000/svg">
<mask id="mask0_1425_618" style="mask-type:luminance" maskUnits="userSpaceOnUse" x="0" y="0" width="340" height="190">
<path d="M340 0H0V190H340V0Z" fill="white"/>
</mask>
<g mask="url(#mask0_1425_618)">
<path d="M340 0H0V190H340V0Z" fill="white"/>
<path d="M1512 -36H0V1047H1512V-36Z" fill="#FF8C19"/>
<path d="M108.379 119.556H87.3154V78.207H78V127.388H108.379V119.556Z" fill="#070562"/>
<path d="M108.378 81.998C97.8758 81.998 91.7051 88.7621 91.7051 98.6115C91.7051 108.461 97.8758 115.284 108.378 115.284C118.82 115.284 125.05 108.461 125.05 98.6115C125.05 88.7621 118.82 81.998 108.378 81.998ZM108.378 108.876C103.928 108.876 101.258 105.198 101.258 98.6115C101.258 92.0254 103.928 88.406 108.378 88.406C112.768 88.406 115.438 92.0254 115.438 98.6115C115.438 105.198 112.768 108.876 108.378 108.876Z" fill="#070562"/>
<path d="M161.914 82.8286H152.599V86.982L150.522 83.6593C148.92 82.6506 145.776 81.998 143.165 81.998C135.036 81.998 128.094 87.5753 128.094 98.9081C128.094 108.283 133.79 114.394 142.572 114.394C145.776 114.394 148.446 113.623 150.226 112.318L152.599 108.817V109.648C152.599 111.131 152.54 112.496 152.48 113.623C152.243 118.31 149.217 120.506 144.648 120.506C140.792 120.506 138.24 118.963 137.944 116.412L137.884 115.878H128.865L128.925 116.471C129.637 123.532 135.095 127.388 144.411 127.388C154.735 127.388 161.499 122.701 161.855 112.555C161.914 110.834 161.914 108.402 161.914 106.444V82.8286ZM145.064 107.986C140.673 107.986 137.647 104.426 137.647 98.196C137.647 91.3133 140.851 88.406 145.36 88.406C148.861 88.406 152.599 90.7793 152.599 97.5434V98.1367C152.599 105.376 149.276 107.986 145.064 107.986Z" fill="#070562"/>
<path d="M216.091 114.454H225.169C224.695 110.953 224.576 108.817 224.576 106.444V96.8314C224.576 94.992 224.517 93.212 224.398 91.7287C223.923 86.092 220.541 81.998 211.167 81.998C203.453 81.998 197.342 86.092 197.164 93.3307H206.064C206.301 90.186 207.903 88.406 210.811 88.406C213.599 88.406 215.023 89.9488 215.201 91.8474C215.32 92.9155 215.32 93.746 215.32 94.5767V95.1107H213.303C202.148 95.1107 196.037 99.1454 196.037 106.028C196.037 112.021 200.843 115.284 206.183 115.284C209.09 115.284 211.76 114.632 214.015 113.208L215.439 109.826L216.091 114.454ZM209.861 108.876C207.31 108.876 205.589 107.63 205.589 105.257C205.589 101.578 209.565 100.154 215.32 100.629V102.943C215.32 106.859 212.65 108.876 209.861 108.876Z" fill="#070562"/>
<path d="M248.997 81.9986C245.793 81.9986 242.649 82.7105 240.869 84.0751L238.495 87.5759V70.8438H229.18V114.454H238.495V110.3L240.572 113.623C242.174 114.632 245.319 115.284 247.929 115.284C256.058 115.284 263 109.351 263 97.9593C263 88.6439 257.719 81.9986 248.997 81.9986ZM245.734 108.876C242.174 108.876 238.495 106.503 238.495 99.68V98.256C238.495 91.0173 241.759 88.4065 246.031 88.4065C250.421 88.4065 253.447 92.3226 253.447 98.5527C253.447 105.435 250.243 108.876 245.734 108.876Z" fill="#070562"/>
<path d="M192.517 108.006V58.416H183.201V115.838H192.517V108.006Z" fill="#070562"/>
<path d="M153.373 74.4892H167.844V115.839H177.159V66.6572H153.373V74.4892Z" fill="white"/>
<path d="M172.325 62.5371C175.511 62.5371 178.094 59.9544 178.094 56.7686C178.094 53.5827 175.511 51 172.325 51C169.139 51 166.557 53.5827 166.557 56.7686C166.557 59.9544 169.139 62.5371 172.325 62.5371Z" fill="white"/>
</g>
<rect y="190" width="340" height="12" fill="white"/>
<rect y="202" width="340" height="12" fill="#2DC66A"/>
<rect y="214" width="340" height="12" fill="#070562"/>
</svg>
