<svg width="12" height="12" viewBox="0 0 12 12" fill="none" xmlns="http://www.w3.org/2000/svg">
<path d="M0.202772 10.8182C-0.0675908 11.0885 -0.0675908 11.5269 0.202772 11.7972C0.473135 12.0676 0.91148 12.0676 1.18184 11.7972L6 6.97907L10.8182 11.7972C11.0885 12.0676 11.5269 12.0676 11.7972 11.7972C12.0676 11.5269 12.0676 11.0885 11.7972 10.8182L6.97907 6L11.7972 1.18184C12.0676 0.91148 12.0676 0.473136 11.7972 0.202772C11.5269 -0.0675908 11.0885 -0.0675908 10.8182 0.202772L6 5.02093L1.18184 0.202772C0.91148 -0.0675908 0.473135 -0.0675908 0.202772 0.202772C-0.0675907 0.473136 -0.0675907 0.91148 0.202772 1.18184L5.02093 6L0.202772 10.8182Z" fill="#EBEBEB"/>
</svg>
