<svg width="13" height="13" viewBox="0 0 13 13" fill="none" xmlns="http://www.w3.org/2000/svg">
<path fill-rule="evenodd" clip-rule="evenodd" d="M12.4824 1.13157C12.5296 0.958464 12.4804 0.773333 12.3536 0.646458C12.2267 0.519583 12.0416 0.470419 11.8685 0.51763L0.868453 3.51763C0.696498 3.56453 0.562509 3.69941 0.516761 3.87168C0.471014 4.04394 0.520427 4.22753 0.646458 4.35356L8.64646 12.3536C8.77249 12.4796 8.95608 12.529 9.12835 12.4833C9.30061 12.4375 9.4355 12.3035 9.48239 12.1316L12.4824 1.13157ZM5.70711 8L8.35355 5.35355C8.54882 5.15829 8.54882 4.84171 8.35355 4.64645C8.15829 4.45118 7.84171 4.45118 7.64645 4.64645L5 7.29289L1.9628 4.25569L11.2874 1.71262L8.74433 11.0372L5.70711 8Z" fill="#EBEBEB"/>
</svg>
