<svg width="30" height="31" viewBox="0 0 30 31" fill="none" xmlns="http://www.w3.org/2000/svg">
<path fill-rule="evenodd" clip-rule="evenodd" d="M15 28.7207C22.1797 28.7207 28 22.9004 28 15.7207C28 8.541 22.1797 2.7207 15 2.7207C7.8203 2.7207 2 8.541 2 15.7207C2 22.9004 7.8203 28.7207 15 28.7207ZM15 30.7207C23.2843 30.7207 30 24.005 30 15.7207C30 7.43643 23.2843 0.720703 15 0.720703C6.71573 0.720703 0 7.43643 0 15.7207C0 24.005 6.71573 30.7207 15 30.7207Z" fill="#0F0F0F"/>
<path d="M13.4664 19.0907V18.9885C13.4778 17.9032 13.5914 17.0396 13.8074 16.3976C14.0233 15.7555 14.3301 15.2356 14.7278 14.8379C15.1255 14.4402 15.6028 14.0737 16.1596 13.7385C16.4949 13.5339 16.796 13.2924 17.063 13.014C17.3301 12.7299 17.5403 12.4032 17.6937 12.0339C17.8528 11.6646 17.9324 11.2555 17.9324 10.8066C17.9324 10.2498 17.8017 9.76687 17.5403 9.35778C17.2789 8.94869 16.9295 8.63334 16.492 8.41175C16.0545 8.19016 15.5687 8.07937 15.0346 8.07937C14.5687 8.07937 14.1199 8.17596 13.688 8.36914C13.2562 8.56232 12.8954 8.8663 12.6056 9.28107C12.3159 9.69584 12.1483 10.2385 12.1028 10.9089H9.95508C10.0005 9.943 10.2505 9.1163 10.7051 8.4288C11.1653 7.7413 11.7704 7.21573 12.5204 6.85209C13.2761 6.48846 14.1142 6.30664 15.0346 6.30664C16.0346 6.30664 16.9039 6.5055 17.6426 6.90323C18.3869 7.30096 18.9608 7.84641 19.3642 8.53959C19.7733 9.23278 19.9778 10.0225 19.9778 10.9089C19.9778 11.5339 19.8812 12.0993 19.688 12.6049C19.5005 13.1106 19.2278 13.5623 18.8699 13.9601C18.5176 14.3578 18.0914 14.7101 17.5914 15.0169C17.0914 15.3294 16.6909 15.6589 16.3897 16.0055C16.0886 16.3464 15.8699 16.7527 15.7335 17.2243C15.5971 17.6958 15.5233 18.2839 15.5119 18.9885V19.0907H13.4664ZM14.5574 24.1362C14.1369 24.1362 13.7761 23.9856 13.475 23.6845C13.1738 23.3833 13.0233 23.0225 13.0233 22.6021C13.0233 22.1816 13.1738 21.8208 13.475 21.5197C13.7761 21.2186 14.1369 21.068 14.5574 21.068C14.9778 21.068 15.3386 21.2186 15.6397 21.5197C15.9409 21.8208 16.0914 22.1816 16.0914 22.6021C16.0914 22.8805 16.0204 23.1362 15.8784 23.3691C15.742 23.6021 15.5574 23.7896 15.3244 23.9316C15.0971 24.068 14.8414 24.1362 14.5574 24.1362Z" fill="#0F0F0F"/>
</svg>
